G04 #@! TF.GenerationSoftware,KiCad,Pcbnew,5.0.2-bee76a0~70~ubuntu16.04.1*
G04 #@! TF.CreationDate,2019-02-17T20:15:13+09:00*
G04 #@! TF.ProjectId,msykbd,6d73796b-6264-42e6-9b69-6361645f7063,rev?*
G04 #@! TF.SameCoordinates,Original*
G04 #@! TF.FileFunction,Legend,Bot*
G04 #@! TF.FilePolarity,Positive*
%FSLAX46Y46*%
G04 Gerber Fmt 4.6, Leading zero omitted, Abs format (unit mm)*
G04 Created by KiCad (PCBNEW 5.0.2-bee76a0~70~ubuntu16.04.1) date 2019年02月17日 20時15分13秒*
%MOMM*%
%LPD*%
G01*
G04 APERTURE LIST*
%ADD10C,0.300000*%
%ADD11C,0.150000*%
G04 APERTURE END LIST*
D10*
X32583571Y-113832142D02*
X31869285Y-113332142D01*
X32583571Y-112975000D02*
X31083571Y-112975000D01*
X31083571Y-113546428D01*
X31155000Y-113689285D01*
X31226428Y-113760714D01*
X31369285Y-113832142D01*
X31583571Y-113832142D01*
X31726428Y-113760714D01*
X31797857Y-113689285D01*
X31869285Y-113546428D01*
X31869285Y-112975000D01*
X31083571Y-114760714D02*
X31083571Y-115046428D01*
X31155000Y-115189285D01*
X31297857Y-115332142D01*
X31583571Y-115403571D01*
X32083571Y-115403571D01*
X32369285Y-115332142D01*
X32512142Y-115189285D01*
X32583571Y-115046428D01*
X32583571Y-114760714D01*
X32512142Y-114617857D01*
X32369285Y-114475000D01*
X32083571Y-114403571D01*
X31583571Y-114403571D01*
X31297857Y-114475000D01*
X31155000Y-114617857D01*
X31083571Y-114760714D01*
X31083571Y-115903571D02*
X32583571Y-116260714D01*
X31512142Y-116546428D01*
X32583571Y-116832142D01*
X31083571Y-117189285D01*
X31083571Y-118046428D02*
X31083571Y-118189285D01*
X31155000Y-118332142D01*
X31226428Y-118403571D01*
X31369285Y-118475000D01*
X31655000Y-118546428D01*
X32012142Y-118546428D01*
X32297857Y-118475000D01*
X32440714Y-118403571D01*
X32512142Y-118332142D01*
X32583571Y-118189285D01*
X32583571Y-118046428D01*
X32512142Y-117903571D01*
X32440714Y-117832142D01*
X32297857Y-117760714D01*
X32012142Y-117689285D01*
X31655000Y-117689285D01*
X31369285Y-117760714D01*
X31226428Y-117832142D01*
X31155000Y-117903571D01*
X31083571Y-118046428D01*
X32583571Y-94782142D02*
X31869285Y-94282142D01*
X32583571Y-93925000D02*
X31083571Y-93925000D01*
X31083571Y-94496428D01*
X31155000Y-94639285D01*
X31226428Y-94710714D01*
X31369285Y-94782142D01*
X31583571Y-94782142D01*
X31726428Y-94710714D01*
X31797857Y-94639285D01*
X31869285Y-94496428D01*
X31869285Y-93925000D01*
X31083571Y-95710714D02*
X31083571Y-95996428D01*
X31155000Y-96139285D01*
X31297857Y-96282142D01*
X31583571Y-96353571D01*
X32083571Y-96353571D01*
X32369285Y-96282142D01*
X32512142Y-96139285D01*
X32583571Y-95996428D01*
X32583571Y-95710714D01*
X32512142Y-95567857D01*
X32369285Y-95425000D01*
X32083571Y-95353571D01*
X31583571Y-95353571D01*
X31297857Y-95425000D01*
X31155000Y-95567857D01*
X31083571Y-95710714D01*
X31083571Y-96853571D02*
X32583571Y-97210714D01*
X31512142Y-97496428D01*
X32583571Y-97782142D01*
X31083571Y-98139285D01*
X32583571Y-99496428D02*
X32583571Y-98639285D01*
X32583571Y-99067857D02*
X31083571Y-99067857D01*
X31297857Y-98925000D01*
X31440714Y-98782142D01*
X31512142Y-98639285D01*
X32583571Y-75732142D02*
X31869285Y-75232142D01*
X32583571Y-74875000D02*
X31083571Y-74875000D01*
X31083571Y-75446428D01*
X31155000Y-75589285D01*
X31226428Y-75660714D01*
X31369285Y-75732142D01*
X31583571Y-75732142D01*
X31726428Y-75660714D01*
X31797857Y-75589285D01*
X31869285Y-75446428D01*
X31869285Y-74875000D01*
X31083571Y-76660714D02*
X31083571Y-76946428D01*
X31155000Y-77089285D01*
X31297857Y-77232142D01*
X31583571Y-77303571D01*
X32083571Y-77303571D01*
X32369285Y-77232142D01*
X32512142Y-77089285D01*
X32583571Y-76946428D01*
X32583571Y-76660714D01*
X32512142Y-76517857D01*
X32369285Y-76375000D01*
X32083571Y-76303571D01*
X31583571Y-76303571D01*
X31297857Y-76375000D01*
X31155000Y-76517857D01*
X31083571Y-76660714D01*
X31083571Y-77803571D02*
X32583571Y-78160714D01*
X31512142Y-78446428D01*
X32583571Y-78732142D01*
X31083571Y-79089285D01*
X31226428Y-79589285D02*
X31155000Y-79660714D01*
X31083571Y-79803571D01*
X31083571Y-80160714D01*
X31155000Y-80303571D01*
X31226428Y-80375000D01*
X31369285Y-80446428D01*
X31512142Y-80446428D01*
X31726428Y-80375000D01*
X32583571Y-79517857D01*
X32583571Y-80446428D01*
X32583571Y-56682142D02*
X31869285Y-56182142D01*
X32583571Y-55825000D02*
X31083571Y-55825000D01*
X31083571Y-56396428D01*
X31155000Y-56539285D01*
X31226428Y-56610714D01*
X31369285Y-56682142D01*
X31583571Y-56682142D01*
X31726428Y-56610714D01*
X31797857Y-56539285D01*
X31869285Y-56396428D01*
X31869285Y-55825000D01*
X31083571Y-57610714D02*
X31083571Y-57896428D01*
X31155000Y-58039285D01*
X31297857Y-58182142D01*
X31583571Y-58253571D01*
X32083571Y-58253571D01*
X32369285Y-58182142D01*
X32512142Y-58039285D01*
X32583571Y-57896428D01*
X32583571Y-57610714D01*
X32512142Y-57467857D01*
X32369285Y-57325000D01*
X32083571Y-57253571D01*
X31583571Y-57253571D01*
X31297857Y-57325000D01*
X31155000Y-57467857D01*
X31083571Y-57610714D01*
X31083571Y-58753571D02*
X32583571Y-59110714D01*
X31512142Y-59396428D01*
X32583571Y-59682142D01*
X31083571Y-60039285D01*
X31083571Y-60467857D02*
X31083571Y-61396428D01*
X31655000Y-60896428D01*
X31655000Y-61110714D01*
X31726428Y-61253571D01*
X31797857Y-61325000D01*
X31940714Y-61396428D01*
X32297857Y-61396428D01*
X32440714Y-61325000D01*
X32512142Y-61253571D01*
X32583571Y-61110714D01*
X32583571Y-60682142D01*
X32512142Y-60539285D01*
X32440714Y-60467857D01*
X32583571Y-37632142D02*
X31869285Y-37132142D01*
X32583571Y-36775000D02*
X31083571Y-36775000D01*
X31083571Y-37346428D01*
X31155000Y-37489285D01*
X31226428Y-37560714D01*
X31369285Y-37632142D01*
X31583571Y-37632142D01*
X31726428Y-37560714D01*
X31797857Y-37489285D01*
X31869285Y-37346428D01*
X31869285Y-36775000D01*
X31083571Y-38560714D02*
X31083571Y-38846428D01*
X31155000Y-38989285D01*
X31297857Y-39132142D01*
X31583571Y-39203571D01*
X32083571Y-39203571D01*
X32369285Y-39132142D01*
X32512142Y-38989285D01*
X32583571Y-38846428D01*
X32583571Y-38560714D01*
X32512142Y-38417857D01*
X32369285Y-38275000D01*
X32083571Y-38203571D01*
X31583571Y-38203571D01*
X31297857Y-38275000D01*
X31155000Y-38417857D01*
X31083571Y-38560714D01*
X31083571Y-39703571D02*
X32583571Y-40060714D01*
X31512142Y-40346428D01*
X32583571Y-40632142D01*
X31083571Y-40989285D01*
X31583571Y-42203571D02*
X32583571Y-42203571D01*
X31012142Y-41846428D02*
X32083571Y-41489285D01*
X32083571Y-42417857D01*
X105279285Y-48728571D02*
X105279285Y-49728571D01*
X105636428Y-48157142D02*
X105993571Y-49228571D01*
X105065000Y-49228571D01*
X105207857Y-45688571D02*
X105922142Y-45688571D01*
X105993571Y-46402857D01*
X105922142Y-46331428D01*
X105779285Y-46260000D01*
X105422142Y-46260000D01*
X105279285Y-46331428D01*
X105207857Y-46402857D01*
X105136428Y-46545714D01*
X105136428Y-46902857D01*
X105207857Y-47045714D01*
X105279285Y-47117142D01*
X105422142Y-47188571D01*
X105779285Y-47188571D01*
X105922142Y-47117142D01*
X105993571Y-47045714D01*
X105279285Y-43148571D02*
X105565000Y-43148571D01*
X105707857Y-43220000D01*
X105779285Y-43291428D01*
X105922142Y-43505714D01*
X105993571Y-43791428D01*
X105993571Y-44362857D01*
X105922142Y-44505714D01*
X105850714Y-44577142D01*
X105707857Y-44648571D01*
X105422142Y-44648571D01*
X105279285Y-44577142D01*
X105207857Y-44505714D01*
X105136428Y-44362857D01*
X105136428Y-44005714D01*
X105207857Y-43862857D01*
X105279285Y-43791428D01*
X105422142Y-43720000D01*
X105707857Y-43720000D01*
X105850714Y-43791428D01*
X105922142Y-43862857D01*
X105993571Y-44005714D01*
X106065000Y-40608571D02*
X105065000Y-40608571D01*
X105707857Y-42108571D01*
X106493571Y-39425714D02*
X106565000Y-39497142D01*
X106779285Y-39568571D01*
X106922142Y-39568571D01*
X107136428Y-39497142D01*
X107279285Y-39354285D01*
X107350714Y-39211428D01*
X107422142Y-38925714D01*
X107422142Y-38711428D01*
X107350714Y-38425714D01*
X107279285Y-38282857D01*
X107136428Y-38140000D01*
X106922142Y-38068571D01*
X106779285Y-38068571D01*
X106565000Y-38140000D01*
X106493571Y-38211428D01*
X105565000Y-38068571D02*
X105279285Y-38068571D01*
X105136428Y-38140000D01*
X104993571Y-38282857D01*
X104922142Y-38568571D01*
X104922142Y-39068571D01*
X104993571Y-39354285D01*
X105136428Y-39497142D01*
X105279285Y-39568571D01*
X105565000Y-39568571D01*
X105707857Y-39497142D01*
X105850714Y-39354285D01*
X105922142Y-39068571D01*
X105922142Y-38568571D01*
X105850714Y-38282857D01*
X105707857Y-38140000D01*
X105565000Y-38068571D01*
X103565000Y-39568571D02*
X104279285Y-39568571D01*
X104279285Y-38068571D01*
X96412857Y-33075714D02*
X96484285Y-33147142D01*
X96698571Y-33218571D01*
X96841428Y-33218571D01*
X97055714Y-33147142D01*
X97198571Y-33004285D01*
X97270000Y-32861428D01*
X97341428Y-32575714D01*
X97341428Y-32361428D01*
X97270000Y-32075714D01*
X97198571Y-31932857D01*
X97055714Y-31790000D01*
X96841428Y-31718571D01*
X96698571Y-31718571D01*
X96484285Y-31790000D01*
X96412857Y-31861428D01*
X95484285Y-31718571D02*
X95198571Y-31718571D01*
X95055714Y-31790000D01*
X94912857Y-31932857D01*
X94841428Y-32218571D01*
X94841428Y-32718571D01*
X94912857Y-33004285D01*
X95055714Y-33147142D01*
X95198571Y-33218571D01*
X95484285Y-33218571D01*
X95627142Y-33147142D01*
X95770000Y-33004285D01*
X95841428Y-32718571D01*
X95841428Y-32218571D01*
X95770000Y-31932857D01*
X95627142Y-31790000D01*
X95484285Y-31718571D01*
X93484285Y-33218571D02*
X94198571Y-33218571D01*
X94198571Y-31718571D01*
X93127142Y-31718571D02*
X92198571Y-31718571D01*
X92698571Y-32290000D01*
X92484285Y-32290000D01*
X92341428Y-32361428D01*
X92270000Y-32432857D01*
X92198571Y-32575714D01*
X92198571Y-32932857D01*
X92270000Y-33075714D01*
X92341428Y-33147142D01*
X92484285Y-33218571D01*
X92912857Y-33218571D01*
X93055714Y-33147142D01*
X93127142Y-33075714D01*
X76727857Y-33075714D02*
X76799285Y-33147142D01*
X77013571Y-33218571D01*
X77156428Y-33218571D01*
X77370714Y-33147142D01*
X77513571Y-33004285D01*
X77585000Y-32861428D01*
X77656428Y-32575714D01*
X77656428Y-32361428D01*
X77585000Y-32075714D01*
X77513571Y-31932857D01*
X77370714Y-31790000D01*
X77156428Y-31718571D01*
X77013571Y-31718571D01*
X76799285Y-31790000D01*
X76727857Y-31861428D01*
X75799285Y-31718571D02*
X75513571Y-31718571D01*
X75370714Y-31790000D01*
X75227857Y-31932857D01*
X75156428Y-32218571D01*
X75156428Y-32718571D01*
X75227857Y-33004285D01*
X75370714Y-33147142D01*
X75513571Y-33218571D01*
X75799285Y-33218571D01*
X75942142Y-33147142D01*
X76085000Y-33004285D01*
X76156428Y-32718571D01*
X76156428Y-32218571D01*
X76085000Y-31932857D01*
X75942142Y-31790000D01*
X75799285Y-31718571D01*
X73799285Y-33218571D02*
X74513571Y-33218571D01*
X74513571Y-31718571D01*
X73370714Y-31861428D02*
X73299285Y-31790000D01*
X73156428Y-31718571D01*
X72799285Y-31718571D01*
X72656428Y-31790000D01*
X72585000Y-31861428D01*
X72513571Y-32004285D01*
X72513571Y-32147142D01*
X72585000Y-32361428D01*
X73442142Y-33218571D01*
X72513571Y-33218571D01*
X57677857Y-33075714D02*
X57749285Y-33147142D01*
X57963571Y-33218571D01*
X58106428Y-33218571D01*
X58320714Y-33147142D01*
X58463571Y-33004285D01*
X58535000Y-32861428D01*
X58606428Y-32575714D01*
X58606428Y-32361428D01*
X58535000Y-32075714D01*
X58463571Y-31932857D01*
X58320714Y-31790000D01*
X58106428Y-31718571D01*
X57963571Y-31718571D01*
X57749285Y-31790000D01*
X57677857Y-31861428D01*
X56749285Y-31718571D02*
X56463571Y-31718571D01*
X56320714Y-31790000D01*
X56177857Y-31932857D01*
X56106428Y-32218571D01*
X56106428Y-32718571D01*
X56177857Y-33004285D01*
X56320714Y-33147142D01*
X56463571Y-33218571D01*
X56749285Y-33218571D01*
X56892142Y-33147142D01*
X57035000Y-33004285D01*
X57106428Y-32718571D01*
X57106428Y-32218571D01*
X57035000Y-31932857D01*
X56892142Y-31790000D01*
X56749285Y-31718571D01*
X54749285Y-33218571D02*
X55463571Y-33218571D01*
X55463571Y-31718571D01*
X53463571Y-33218571D02*
X54320714Y-33218571D01*
X53892142Y-33218571D02*
X53892142Y-31718571D01*
X54035000Y-31932857D01*
X54177857Y-32075714D01*
X54320714Y-32147142D01*
X38627857Y-32440714D02*
X38699285Y-32512142D01*
X38913571Y-32583571D01*
X39056428Y-32583571D01*
X39270714Y-32512142D01*
X39413571Y-32369285D01*
X39485000Y-32226428D01*
X39556428Y-31940714D01*
X39556428Y-31726428D01*
X39485000Y-31440714D01*
X39413571Y-31297857D01*
X39270714Y-31155000D01*
X39056428Y-31083571D01*
X38913571Y-31083571D01*
X38699285Y-31155000D01*
X38627857Y-31226428D01*
X37699285Y-31083571D02*
X37413571Y-31083571D01*
X37270714Y-31155000D01*
X37127857Y-31297857D01*
X37056428Y-31583571D01*
X37056428Y-32083571D01*
X37127857Y-32369285D01*
X37270714Y-32512142D01*
X37413571Y-32583571D01*
X37699285Y-32583571D01*
X37842142Y-32512142D01*
X37985000Y-32369285D01*
X38056428Y-32083571D01*
X38056428Y-31583571D01*
X37985000Y-31297857D01*
X37842142Y-31155000D01*
X37699285Y-31083571D01*
X35699285Y-32583571D02*
X36413571Y-32583571D01*
X36413571Y-31083571D01*
X34913571Y-31083571D02*
X34770714Y-31083571D01*
X34627857Y-31155000D01*
X34556428Y-31226428D01*
X34485000Y-31369285D01*
X34413571Y-31655000D01*
X34413571Y-32012142D01*
X34485000Y-32297857D01*
X34556428Y-32440714D01*
X34627857Y-32512142D01*
X34770714Y-32583571D01*
X34913571Y-32583571D01*
X35056428Y-32512142D01*
X35127857Y-32440714D01*
X35199285Y-32297857D01*
X35270714Y-32012142D01*
X35270714Y-31655000D01*
X35199285Y-31369285D01*
X35127857Y-31226428D01*
X35056428Y-31155000D01*
X34913571Y-31083571D01*
D11*
G04 #@! TO.C,J14*
X128425000Y-78590000D02*
X128425000Y-84590000D01*
X128425000Y-84590000D02*
X116425000Y-84590000D01*
X116425000Y-84590000D02*
X116425000Y-78590000D01*
X116425000Y-78590000D02*
X128425000Y-78590000D01*
G04 #@! TO.C,U1*
X109375000Y-63020000D02*
X109375000Y-32540000D01*
X111915000Y-63020000D02*
X109375000Y-63020000D01*
X111915000Y-32540000D02*
X111915000Y-63020000D01*
X109375000Y-32540000D02*
X111915000Y-32540000D01*
X124615000Y-63020000D02*
X124615000Y-32540000D01*
X127155000Y-63020000D02*
X124615000Y-63020000D01*
X127155000Y-32540000D02*
X127155000Y-63020000D01*
X124615000Y-32540000D02*
X127155000Y-32540000D01*
X109375000Y-63020000D02*
X109375000Y-30000000D01*
X127155000Y-30000000D02*
X127155000Y-63020000D01*
X109375000Y-30000000D02*
X127155000Y-30000000D01*
G04 #@! TD*
M02*
