M48
;DRILL file {KiCad 5.0.2-bee76a0~70~ubuntu16.04.1} date 2019年02月17日 20時15分27秒
;FORMAT={-:-/ absolute / metric / decimal}
FMAT,2
METRIC,TZ
T1C1.200
T2C1.700
T3C1.900
T4C3.000
T5C4.000
%
G90
G05
T1
X34.28Y-116.3
X44.72Y-116.3
X53.28Y-59.3
X63.72Y-59.3
X91.28Y-59.3
X101.72Y-59.3
X53.28Y-116.3
X63.72Y-116.3
X53.28Y-97.3
X63.72Y-97.3
X34.28Y-40.3
X44.72Y-40.3
X91.28Y-40.3
X101.72Y-40.3
X72.28Y-59.3
X82.72Y-59.3
X72.28Y-78.3
X82.72Y-78.3
X34.28Y-78.3
X44.72Y-78.3
X34.28Y-97.3
X44.72Y-97.3
X53.28Y-78.3
X63.72Y-78.3
X91.28Y-78.3
X101.72Y-78.3
X119.925Y-81.59
X119.925Y-83.34
X126.925Y-81.59
X126.925Y-83.34
X34.28Y-59.3
X44.72Y-59.3
X72.28Y-116.3
X82.72Y-116.3
X91.28Y-97.3
X101.72Y-97.3
X72.28Y-97.3
X82.72Y-97.3
X91.28Y-116.3
X101.72Y-116.3
X72.28Y-40.3
X82.72Y-40.3
X53.28Y-40.3
X63.72Y-40.3
T2
X91.42Y-101.5
X101.58Y-101.5
X72.42Y-101.5
X82.58Y-101.5
X91.42Y-120.5
X101.58Y-120.5
X72.42Y-44.5
X82.58Y-44.5
X53.42Y-44.5
X63.58Y-44.5
X34.42Y-120.5
X44.58Y-120.5
X53.42Y-63.5
X63.58Y-63.5
X91.42Y-63.5
X101.58Y-63.5
X53.42Y-120.5
X63.58Y-120.5
X53.42Y-101.5
X63.58Y-101.5
X34.42Y-44.5
X44.58Y-44.5
X91.42Y-44.5
X101.58Y-44.5
X72.42Y-63.5
X82.58Y-63.5
X72.42Y-82.5
X82.58Y-82.5
X34.42Y-82.5
X44.58Y-82.5
X34.42Y-101.5
X44.58Y-101.5
X53.42Y-82.5
X63.58Y-82.5
X91.42Y-82.5
X101.58Y-82.5
X34.42Y-63.5
X44.58Y-63.5
X72.42Y-120.5
X82.58Y-120.5
T3
X91.Y-101.5
X102.Y-101.5
X72.Y-101.5
X83.Y-101.5
X91.Y-120.5
X102.Y-120.5
X72.Y-44.5
X83.Y-44.5
X53.Y-44.5
X64.Y-44.5
X34.Y-120.5
X45.Y-120.5
X53.Y-63.5
X64.Y-63.5
X91.Y-63.5
X102.Y-63.5
X53.Y-120.5
X64.Y-120.5
X53.Y-101.5
X64.Y-101.5
X34.Y-44.5
X45.Y-44.5
X91.Y-44.5
X102.Y-44.5
X72.Y-63.5
X83.Y-63.5
X72.Y-82.5
X83.Y-82.5
X34.Y-82.5
X45.Y-82.5
X34.Y-101.5
X45.Y-101.5
X53.Y-82.5
X64.Y-82.5
X91.Y-82.5
X102.Y-82.5
X34.Y-63.5
X45.Y-63.5
X72.Y-120.5
X83.Y-120.5
T4
X106.Y-54.
X49.Y-111.
X68.Y-111.
X106.Y-111.
X68.Y-54.
X49.Y-54.
T5
X39.5Y-120.5
X58.5Y-63.5
X96.5Y-63.5
X58.5Y-120.5
X58.5Y-101.5
X39.5Y-44.5
X96.5Y-44.5
X77.5Y-63.5
X77.5Y-82.5
X39.5Y-82.5
X39.5Y-101.5
X58.5Y-82.5
X96.5Y-82.5
X39.5Y-63.5
X77.5Y-120.5
X96.5Y-101.5
X77.5Y-101.5
X96.5Y-120.5
X77.5Y-44.5
X58.5Y-44.5
T0
M30
