M48
;DRILL file {KiCad 5.0.2-bee76a0~70~ubuntu16.04.1} date 2019年02月17日 20時15分27秒
;FORMAT={-:-/ absolute / metric / decimal}
FMAT,2
METRIC,TZ
T1C0.400
T2C0.800
T3C0.813
T4C0.900
T5C1.000
T6C1.100
T7C1.500
%
G90
G05
T1
X106.835Y-61.75
X107.47Y-57.305
X109.375Y-63.655
X111.28Y-78.26
X111.915Y-95.405
X113.185Y-46.51
X113.185Y-49.05
X113.82Y-45.24
X120.17Y-51.59
X120.17Y-55.4
X120.17Y-57.94
X120.17Y-60.48
X120.17Y-63.02
X125.25Y-94.77
X127.155Y-88.42
T2
X123.345Y-36.39
X123.345Y-38.89
T3
X110.645Y-33.81
X110.645Y-36.35
X110.645Y-38.89
X110.645Y-41.43
X110.645Y-43.97
X110.645Y-46.51
X110.645Y-49.05
X110.645Y-51.59
X110.645Y-54.13
X110.645Y-56.67
X110.645Y-59.21
X110.645Y-61.75
X125.885Y-33.81
X125.885Y-36.35
X125.885Y-38.89
X125.885Y-41.43
X125.885Y-43.97
X125.885Y-46.51
X125.885Y-49.05
X125.885Y-51.59
X125.885Y-54.13
X125.885Y-56.67
X125.885Y-59.21
X125.885Y-61.75
T4
X55.Y-54.
X62.62Y-54.
X93.Y-92.
X100.62Y-92.
X74.Y-54.
X81.62Y-54.
X93.Y-73.
X100.62Y-73.
X93.Y-35.
X100.62Y-35.
X36.Y-35.
X43.62Y-35.
X93.Y-54.
X100.62Y-54.
X74.Y-92.
X81.62Y-92.
X74.Y-35.
X81.62Y-35.
X74.Y-73.
X81.62Y-73.
X55.Y-35.
X62.62Y-35.
X74.Y-111.
X81.62Y-111.
X36.Y-73.
X43.62Y-73.
X55.Y-92.
X62.62Y-92.
X92.5Y-111.
X100.12Y-111.
X55.Y-111.
X62.62Y-111.
X36.Y-54.
X43.62Y-54.
X36.Y-92.
X43.62Y-92.
X55.Y-73.
X62.62Y-73.
X36.Y-111.
X43.62Y-111.
T5
X108.105Y-41.43
X113.185Y-92.23
X115.725Y-92.23
X118.265Y-92.23
X120.805Y-92.23
X123.345Y-92.23
X33.048Y-73.
X33.048Y-35.08
X70.64Y-32.54
X108.105Y-46.51
X33.048Y-32.54
X89.944Y-32.54
X114.455Y-73.18
X116.995Y-73.18
X119.535Y-73.18
X122.075Y-73.18
X108.105Y-49.05
X33.048Y-92.
X108.105Y-43.97
X51.59Y-32.54
X33.Y-111.
X33.048Y-54.
T6
X115.09Y-64.925
X115.09Y-69.425
X121.59Y-64.925
X121.59Y-69.425
T7
X72.5Y-105.3
X73.69Y-98.96
X74.96Y-96.42
X77.5Y-107.4
X80.04Y-96.42
X81.31Y-98.96
X82.5Y-105.3
X91.5Y-124.3
X92.69Y-117.96
X93.96Y-115.42
X96.5Y-126.4
X99.04Y-115.42
X100.31Y-117.96
X101.5Y-124.3
X72.5Y-48.3
X73.69Y-41.96
X74.96Y-39.42
X77.5Y-50.4
X80.04Y-39.42
X81.31Y-41.96
X82.5Y-48.3
X53.5Y-48.3
X54.69Y-41.96
X55.96Y-39.42
X58.5Y-50.4
X61.04Y-39.42
X62.31Y-41.96
X63.5Y-48.3
X34.5Y-124.3
X35.69Y-117.96
X36.96Y-115.42
X39.5Y-126.4
X42.04Y-115.42
X43.31Y-117.96
X44.5Y-124.3
X53.5Y-67.3
X54.69Y-60.96
X55.96Y-58.42
X58.5Y-69.4
X61.04Y-58.42
X62.31Y-60.96
X63.5Y-67.3
X91.5Y-67.3
X92.69Y-60.96
X93.96Y-58.42
X96.5Y-69.4
X99.04Y-58.42
X100.31Y-60.96
X101.5Y-67.3
X53.5Y-124.3
X54.69Y-117.96
X55.96Y-115.42
X58.5Y-126.4
X61.04Y-115.42
X62.31Y-117.96
X63.5Y-124.3
X53.5Y-105.3
X54.69Y-98.96
X55.96Y-96.42
X58.5Y-107.4
X61.04Y-96.42
X62.31Y-98.96
X63.5Y-105.3
X34.5Y-48.3
X35.69Y-41.96
X36.96Y-39.42
X39.5Y-50.4
X42.04Y-39.42
X43.31Y-41.96
X44.5Y-48.3
X91.5Y-48.3
X92.69Y-41.96
X93.96Y-39.42
X96.5Y-50.4
X99.04Y-39.42
X100.31Y-41.96
X101.5Y-48.3
X72.5Y-67.3
X73.69Y-60.96
X74.96Y-58.42
X77.5Y-69.4
X80.04Y-58.42
X81.31Y-60.96
X82.5Y-67.3
X72.5Y-86.3
X73.69Y-79.96
X74.96Y-77.42
X77.5Y-88.4
X80.04Y-77.42
X81.31Y-79.96
X82.5Y-86.3
X34.5Y-86.3
X35.69Y-79.96
X36.96Y-77.42
X39.5Y-88.4
X42.04Y-77.42
X43.31Y-79.96
X44.5Y-86.3
X34.5Y-105.3
X35.69Y-98.96
X36.96Y-96.42
X39.5Y-107.4
X42.04Y-96.42
X43.31Y-98.96
X44.5Y-105.3
X53.5Y-86.3
X54.69Y-79.96
X55.96Y-77.42
X58.5Y-88.4
X61.04Y-77.42
X62.31Y-79.96
X63.5Y-86.3
X91.5Y-86.3
X92.69Y-79.96
X93.96Y-77.42
X96.5Y-88.4
X99.04Y-77.42
X100.31Y-79.96
X101.5Y-86.3
X34.5Y-67.3
X35.69Y-60.96
X36.96Y-58.42
X39.5Y-69.4
X42.04Y-58.42
X43.31Y-60.96
X44.5Y-67.3
X72.5Y-124.3
X73.69Y-117.96
X74.96Y-115.42
X77.5Y-126.4
X80.04Y-115.42
X81.31Y-117.96
X82.5Y-124.3
X91.5Y-105.3
X92.69Y-98.96
X93.96Y-96.42
X96.5Y-107.4
X99.04Y-96.42
X100.31Y-98.96
X101.5Y-105.3
T5
X116.875Y-81.24G85X116.375Y-81.24
G05
X116.875Y-83.69G85X116.375Y-83.69
G05
X118.375Y-79.49G85X117.875Y-79.49
G05
X118.375Y-85.44G85X117.875Y-85.44
G05
X122.375Y-79.49G85X121.875Y-79.49
G05
X122.375Y-85.44G85X121.875Y-85.44
G05
X125.375Y-79.49G85X124.875Y-79.49
G05
X125.375Y-85.44G85X124.875Y-85.44
G05
T0
M30
