G04 #@! TF.GenerationSoftware,KiCad,Pcbnew,5.0.2-bee76a0~70~ubuntu16.04.1*
G04 #@! TF.CreationDate,2019-02-17T20:15:14+09:00*
G04 #@! TF.ProjectId,msykbd,6d73796b-6264-42e6-9b69-6361645f7063,rev?*
G04 #@! TF.SameCoordinates,Original*
G04 #@! TF.FileFunction,Profile,NP*
%FSLAX46Y46*%
G04 Gerber Fmt 4.6, Leading zero omitted, Abs format (unit mm)*
G04 Created by KiCad (PCBNEW 5.0.2-bee76a0~70~ubuntu16.04.1) date 2019年02月17日 20時15分14秒*
%MOMM*%
%LPD*%
G01*
G04 APERTURE LIST*
%ADD10C,0.200000*%
%ADD11C,0.150000*%
G04 APERTURE END LIST*
D10*
X86500000Y-113500000D02*
G75*
G02X87500000Y-113500000I500000J0D01*
G01*
D11*
X86500000Y-125500000D02*
X86500000Y-113500000D01*
X87500000Y-113500000D02*
X87500000Y-125500000D01*
X87500000Y-125500000D02*
G75*
G02X86500000Y-125500000I-500000J0D01*
G01*
X87500000Y-70500000D02*
X87500000Y-56500000D01*
X86500000Y-56500000D02*
X86500000Y-70500000D01*
X86500000Y-51500000D02*
X86500000Y-37500000D01*
X87500000Y-37500000D02*
X87500000Y-51500000D01*
X86500000Y-37500000D02*
G75*
G02X87500000Y-37500000I500000J0D01*
G01*
X87500000Y-51500000D02*
G75*
G02X86500000Y-51500000I-500000J0D01*
G01*
X86500000Y-56500000D02*
G75*
G02X87500000Y-56500000I500000J0D01*
G01*
X87500000Y-70500000D02*
G75*
G02X86500000Y-70500000I-500000J0D01*
G01*
X30000000Y-130000000D02*
X130000000Y-130000000D01*
X86500000Y-89500000D02*
X86500000Y-75500000D01*
X87500000Y-75500000D02*
X87500000Y-89500000D01*
X86500000Y-75500000D02*
G75*
G02X87500000Y-75500000I500000J0D01*
G01*
X87500000Y-89500000D02*
G75*
G02X86500000Y-89500000I-500000J0D01*
G01*
X86500000Y-94500000D02*
X86500000Y-108500000D01*
X87500000Y-94500000D02*
X87500000Y-108500000D01*
X86500000Y-94500000D02*
G75*
G02X87500000Y-94500000I500000J0D01*
G01*
X87500000Y-108500000D02*
G75*
G02X86500000Y-108500000I-500000J0D01*
G01*
X30000000Y-30000000D02*
X130000000Y-30000000D01*
X130000000Y-30000000D02*
X130000000Y-31000000D01*
X130000000Y-130000000D02*
X130000000Y-30000000D01*
X30000000Y-30000000D02*
X30000000Y-130000000D01*
X31666666Y-30000000D02*
G75*
G03X31666666Y-30000000I-1666666J0D01*
G01*
X27500000Y-30000000D02*
X32500000Y-30000000D01*
X30000000Y-27500000D02*
X30000000Y-32500000D01*
M02*
