0
SECTION
2
HEADER
9
$INSUNITS
70
4
9
$ACADVER
1
AC1014
9
$HANDSEED
5
FFFF
0
ENDSEC
0
SECTION
2
TABLES
0
TABLE
2
VPORT
5
8
100
AcDbSymbolTable
0
ENDTAB
0
TABLE
2
LTYPE
5
5
100
AcDbSymbolTable
0
LTYPE
5
14
100
AcDbSymbolTableRecord
100
AcDbLinetypeTableRecord
2
BYBLOCK
70
0
0
LTYPE
5
15
100
AcDbSymbolTableRecord
100
AcDbLinetypeTableRecord
2
BYLAYER
70
0
0
ENDTAB
0
TABLE
2
LAYER
5
2
100
AcDbSymbolTable
70
2
0
LAYER
5
50
100
AcDbSymbolTableRecord
100
AcDbLayerTableRecord
2
0
70
0
6
CONTINUOUS
0
ENDTAB
0
TABLE
2
STYLE
5
3
100
AcDbSymbolTable
70
1
0
STYLE
5
11
100
AcDbSymbolTableRecord
100
AcDbTextStyleTableRecord
2
STANDARD
70
0
0
ENDTAB
0
TABLE
2
VIEW
5
6
100
AcDbSymbolTable
70
0
0
ENDTAB
0
TABLE
2
UCS
5
7
100
AcDbSymbolTable
70
0
0
ENDTAB
0
TABLE
2
APPID
5
9
100
AcDbSymbolTable
70
2
0
APPID
5
12
100
AcDbSymbolTableRecord
100
AcDbRegAppTableRecord
2
ACAD
70
0
0
ENDTAB
0
TABLE
2
DIMSTYLE
5
A
100
AcDbSymbolTable
70
1
0
ENDTAB
0
TABLE
2
BLOCK_RECORD
5
1
100
AcDbSymbolTable
70
1
0
BLOCK_RECORD
5
1F
100
AcDbSymbolTableRecord
100
AcDbBlockTableRecord
2
*MODEL_SPACE
0
BLOCK_RECORD
5
1B
100
AcDbSymbolTableRecord
100
AcDbBlockTableRecord
2
*PAPER_SPACE
0
ENDTAB
0
ENDSEC
0
SECTION
2
BLOCKS
0
BLOCK
5
20
100
AcDbEntity
100
AcDbBlockBegin
2
*MODEL_SPACE
0
ENDBLK
5
21
100
AcDbEntity
100
AcDbBlockEnd
0
BLOCK
5
1C
100
AcDbEntity
100
AcDbBlockBegin
2
*PAPER_SPACE
0
ENDBLK
5
1D
100
AcDbEntity
100
AcDbBlockEnd
0
ENDSEC
0
SECTION
2
ENTITIES
0
CIRCLE
5
100
100
AcDbEntity
8
0
100
AcDbCircle
10
55
20
-45
30
0
40
1.4999999999999947
0
CIRCLE
5
101
100
AcDbEntity
8
0
100
AcDbCircle
10
90
20
-75
30
0
40
1.5000000000000036
0
CIRCLE
5
102
100
AcDbEntity
8
0
100
AcDbCircle
10
20
20
-75
30
0
40
1.4999999999999991
0
CIRCLE
5
103
100
AcDbEntity
8
0
100
AcDbCircle
10
90
20
-15
30
0
40
1.5000000000000036
0
CIRCLE
5
104
100
AcDbEntity
8
0
100
AcDbCircle
10
20
20
-15
30
0
40
1.4999999999999991
0
CIRCLE
5
105
100
AcDbEntity
8
0
100
AcDbCircle
10
76
20
76
30
0
40
1.5000000000000036
0
CIRCLE
5
106
100
AcDbEntity
8
0
100
AcDbCircle
10
95
20
76
30
0
40
1.5000000000000036
0
CIRCLE
5
107
100
AcDbEntity
8
0
100
AcDbCircle
10
120
20
-5
30
0
40
1.5000000000000036
0
CIRCLE
5
108
100
AcDbEntity
8
0
100
AcDbCircle
10
146
20
-5
30
0
40
1.5000000000000036
0
CIRCLE
5
109
100
AcDbEntity
8
0
100
AcDbCircle
10
120
20
-25
30
0
40
1.5000000000000036
0
CIRCLE
5
110
100
AcDbEntity
8
0
100
AcDbCircle
10
146
20
-25
30
0
40
1.5000000000000036
0
CIRCLE
5
111
100
AcDbEntity
8
0
100
AcDbCircle
10
95
20
19
30
0
40
1.4999999999999858
0
CIRCLE
5
112
100
AcDbEntity
8
0
100
AcDbCircle
10
76
20
19
30
0
40
1.4999999999999947
0
CIRCLE
5
113
100
AcDbEntity
8
0
100
AcDbCircle
10
38
20
19
30
0
40
1.5000000000000036
0
CIRCLE
5
114
100
AcDbEntity
8
0
100
AcDbCircle
10
38
20
76
30
0
40
1.4999999999999991
0
CIRCLE
5
115
100
AcDbEntity
8
0
100
AcDbCircle
10
19
20
76
30
0
40
1.5000000000000013
0
CIRCLE
5
116
100
AcDbEntity
8
0
100
AcDbCircle
10
19
20
19
30
0
40
1.5000000000000013
0
CIRCLE
5
117
100
AcDbEntity
8
0
100
AcDbCircle
10
133
20
76
30
0
40
1.5000000000000036
0
CIRCLE
5
118
100
AcDbEntity
8
0
100
AcDbCircle
10
133
20
19
30
0
40
1.5000000000000036
0
LWPOLYLINE
5
119
100
AcDbEntity
8
0
100
AcDbPolyline
90
12
70
1
43
0.0
10
15.999999999999998
20
-94.169048105154701
42
-0.41421356237309492
10
-3.9999999999999858
20
-74.169048105154744
10
-3.999999999999968
20
102.83095189484526
42
-0.41421356237309848
10
-0.99999999999996092
20
105.83095189484527
10
159.99999999999997
20
105.8309518948453
42
-0.41421356237309503
10
163
20
102.83095189484527
10
163
20
-31.169048105154673
42
-0.41421356237309631
10
159.99999999999997
20
-34.169048105154701
10
134.99999999999997
20
-34.169048105154701
42
0.41421356237309437
10
114.99999999999999
20
-54.169048105154715
10
114.99999999999997
20
-74.169048105154729
42
-0.41421356237309515
10
94.999999999999986
20
-94.169048105154687
0
ENDSEC
0
SECTION
2
OBJECTS
0
DICTIONARY
5
C
100
AcDbDictionary
3
ACAD_GROUP
350
D
3
ACAD_MLINESTYLE
350
17
0
DICTIONARY
5
D
100
AcDbDictionary
0
DICTIONARY
5
1A
330
C
100
AcDbDictionary
0
DICTIONARY
5
17
100
AcDbDictionary
0
ENDSEC
0
EOF
